<svg width="75" height="27" viewBox="0 0 75 27" fill="none" xmlns="http://www.w3.org/2000/svg">
<path d="M0.392578 16.6132C0.392578 14.7393 0.692812 13.1139 1.29328 11.737C1.89375 10.3601 2.81516 9.29372 4.0575 8.53796C5.29985 7.77184 6.85796 7.38879 8.73183 7.38879C10.8024 7.38879 12.4278 7.77702 13.608 8.55349C14.7883 9.3196 15.6113 10.3859 16.0772 11.7525C16.5534 13.1191 16.7916 14.7911 16.7916 16.7685C16.7916 18.5596 16.4758 20.1591 15.8443 21.5671C15.2231 22.9647 14.281 24.0725 13.0179 24.8904C11.7652 25.6979 10.2278 26.1016 8.40572 26.1016C5.58973 26.1016 3.55021 25.2372 2.28716 23.5082C1.0241 21.769 0.392578 19.4706 0.392578 16.6132ZM9.04242 21.5515C9.57042 21.5515 9.89136 21.5101 10.0052 21.4273C10.2434 21.0132 10.4245 20.4283 10.5488 19.6725C10.673 18.9167 10.7351 18.0989 10.7351 17.2189C10.7351 16.4113 10.6834 15.6556 10.5798 14.9516C10.4763 14.2372 10.3314 13.6782 10.145 13.2744C10.0311 13.1398 9.80336 13.0415 9.46171 12.9793C9.12007 12.9069 8.74736 12.8706 8.3436 12.8706C7.8156 12.8706 7.45325 12.9276 7.25655 13.0415C6.7389 13.9318 6.48008 15.169 6.48008 16.753C6.48008 17.4984 6.53702 18.2593 6.6509 19.0358C6.76478 19.8123 6.90972 20.5163 7.08572 21.1478C7.20996 21.2824 7.4636 21.3859 7.84666 21.4584C8.22972 21.5205 8.6283 21.5515 9.04242 21.5515Z" fill="#060D00"/>
<path d="M18.4687 5.47868C18.3134 4.84715 18.2099 4.32433 18.1581 3.91021C18.1064 3.48574 18.0857 2.99916 18.096 2.45045C18.3134 2.17093 18.6499 1.8914 19.1054 1.61187C19.5713 1.32199 20.1097 1.0787 20.7205 0.881992C21.3417 0.685287 21.9835 0.586934 22.6461 0.586934C23.9402 0.586934 24.9341 0.91305 25.6278 1.56528C26.3214 2.21751 26.6682 3.18033 26.6682 4.45374C26.6682 5.36479 26.5906 6.82973 26.4353 8.84854C26.28 10.8674 26.0574 13.0156 25.7675 15.2932C25.4776 17.5605 25.1463 19.5431 24.7736 21.241L24.8047 21.272L27.103 20.3092C27.9106 21.0028 28.3816 21.9242 28.5162 23.0734C28.5162 23.1459 28.2833 23.4461 27.8174 23.9741C27.3515 24.4918 26.7355 24.9784 25.9694 25.4339C25.2136 25.8791 24.344 26.1016 23.3605 26.1016C22.3355 26.1016 21.5021 25.8169 20.8602 25.2475C20.2287 24.6781 19.9285 23.7049 19.9595 22.328L19.9906 19.5327C20.001 16.8824 20.0268 14.496 20.0683 12.3737C20.12 10.2514 20.2235 8.06172 20.3788 5.80479L18.4687 5.47868Z" fill="#060D00"/>
<path d="M30.4884 3.50645C30.4884 2.5954 30.7835 1.85516 31.3736 1.28575C31.9741 0.716345 32.9265 0.431641 34.231 0.431641C35.5355 0.431641 36.4828 0.716345 37.0729 1.28575C37.6733 1.85516 37.9736 2.5954 37.9736 3.50645C37.9736 4.02409 37.7924 4.50033 37.4301 4.93515C37.0781 5.36997 36.6122 5.71679 36.0324 5.97562C35.4526 6.22408 34.8522 6.34832 34.231 6.34832C33.5581 6.34832 32.9317 6.20338 32.352 5.9135C31.7825 5.61326 31.327 5.24056 30.9854 4.79539C30.6541 4.35021 30.4884 3.92057 30.4884 3.50645ZM29.7275 12.3892C29.5929 11.8819 29.4997 11.4212 29.448 11.0071C29.3962 10.5827 29.3703 10.1427 29.3703 9.68713L29.3859 9.25231C29.6033 8.97278 29.9397 8.69325 30.3953 8.41372C30.8611 8.12384 31.3995 7.88055 32.0103 7.68384C32.6315 7.48714 33.2734 7.38879 33.936 7.38879C35.3854 7.38879 36.4155 7.7149 37.0263 8.36713C37.6371 9.01937 37.9425 10.0339 37.9425 11.4109C37.9425 12.2391 37.8235 13.321 37.5853 14.6565C37.3576 15.992 37.0781 17.2913 36.7468 18.5544C36.4258 19.8071 36.1463 20.7026 35.9082 21.241L35.9392 21.272L38.2376 20.4334C38.6517 20.7854 38.9623 21.1737 39.1693 21.5981C39.3867 22.0226 39.5265 22.5144 39.5886 23.0734C39.5886 23.1459 39.3609 23.4461 38.9053 23.9741C38.4498 24.4918 37.8442 24.9784 37.0884 25.4339C36.343 25.8791 35.4785 26.1016 34.495 26.1016C33.5011 26.1016 32.6936 25.8325 32.0724 25.2941C31.4616 24.7558 31.1562 23.8344 31.1562 22.5299C31.1562 21.008 31.1976 19.393 31.2804 17.6847C31.3633 15.9765 31.4927 14.32 31.6687 12.7153L29.7275 12.3892Z" fill="#060D00"/>
<path d="M40.4893 13.2589C40.334 12.8137 40.2098 12.3012 40.1166 11.7215C40.0235 11.1417 39.9769 10.5775 39.9769 10.0288C40.246 9.26266 40.7119 8.62596 41.3745 8.11866C42.0474 7.61137 42.8705 7.35773 43.8437 7.35773C44.7754 7.35773 45.526 7.65278 46.0954 8.2429C46.6752 8.82266 47.1877 9.73372 47.6328 10.9761C48.0987 12.2805 48.4766 13.8231 48.7665 15.6038C49.0564 17.3845 49.2582 19.305 49.3721 21.3652L49.8225 21.3807C50.278 20.4697 50.6714 19.1704 51.0027 17.4829C51.334 15.785 51.5048 14.1751 51.5152 12.6532L49.574 12.3116C49.4394 11.8043 49.3462 11.3591 49.2945 10.9761C49.2427 10.5827 49.2168 10.153 49.2168 9.68713L49.2323 9.25231C49.4187 8.98313 49.7293 8.7036 50.1641 8.41372C50.5989 8.12384 51.1166 7.88055 51.717 7.68384C52.3279 7.48714 52.9646 7.38879 53.6272 7.38879C56.2982 7.38879 57.6337 8.72948 57.6337 11.4109C57.6337 13.0052 57.349 14.7135 56.7796 16.5356C56.2102 18.3473 55.3871 20.0763 54.3104 21.7224C53.2441 23.3685 51.9862 24.7247 50.5368 25.7911C50.0295 25.9981 49.3411 26.1016 48.4714 26.1016C48.0055 26.1016 47.4827 25.9981 46.9029 25.7911C46.3232 25.5943 45.8935 25.3873 45.614 25.1699L45.2879 24.0828C44.5425 21.5567 43.8696 19.3826 43.2691 17.5605C42.6686 15.728 42.1199 14.3666 41.623 13.4763L40.4893 13.2589Z" fill="#060D00"/>
<path d="M59.2177 16.7685C59.2177 14.9775 59.5179 13.3779 60.1184 11.9699C60.7189 10.5619 61.6455 9.44901 62.8982 8.63113C64.1612 7.8029 65.7349 7.38879 67.6191 7.38879C68.6026 7.38879 69.5861 7.50784 70.5697 7.74596C71.5532 7.97372 72.3866 8.35678 73.0699 8.89513C73.7014 9.40242 74.1569 10.0754 74.4365 10.9139C74.7263 11.7422 74.8713 12.6636 74.8713 13.6782C74.8713 14.3511 74.8143 15.0396 74.7005 15.7436C74.5762 15.9506 74.3329 16.225 73.9706 16.5666C73.6082 16.8979 73.1838 17.224 72.6972 17.545C72.2106 17.8659 71.7395 18.1144 71.284 18.2904C70.8492 18.3214 70.3988 18.337 69.933 18.337C69.1151 18.337 68.2868 18.3007 67.4483 18.2283C66.6097 18.1558 65.8746 18.073 65.2431 17.9798C65.3259 18.8598 65.5951 19.6259 66.0506 20.2781C66.5062 20.9304 67.2309 21.2565 68.2247 21.2565C68.3179 21.2565 68.468 21.2461 68.6751 21.2254C69.3066 21.1633 70.0417 20.9977 70.8802 20.7285C71.7292 20.449 72.5729 20.128 73.4115 19.7657C73.8049 20.1591 74.0948 20.5525 74.2812 20.9459C74.4675 21.3393 74.5969 21.9035 74.6694 22.6386C74.3485 23.0113 73.8256 23.4668 73.1009 24.0052C72.3866 24.5435 71.5118 25.0301 70.4765 25.4649C69.4412 25.8894 68.3593 26.1016 67.2309 26.1016C65.533 26.1016 64.0784 25.6927 62.8671 24.8748C61.6662 24.0466 60.7551 22.9285 60.1339 21.5205C59.5231 20.1021 59.2177 18.5181 59.2177 16.7685ZM69.2186 13.1968C69.0737 13.0415 68.8304 12.9224 68.4887 12.8396C68.1471 12.7464 67.7899 12.6998 67.4172 12.6998C67.117 12.6998 66.8116 12.7257 66.501 12.7775C66.2007 12.8292 66.0196 12.8862 65.9574 12.9483C65.6054 13.6419 65.3829 14.4288 65.2897 15.3087L69.436 14.905L69.2186 13.1968Z" fill="#060D00"/>
</svg>
