<svg width="104" height="104" viewBox="0 0 104 104" fill="none" xmlns="http://www.w3.org/2000/svg">
<path d="M80.912 0C93.6632 1.60809e-07 104 10.3369 104 23.088V80.912C104 93.6632 93.6632 104 80.912 104H23.088C10.3369 104 1.60851e-07 93.6632 0 80.912V23.088C1.60851e-07 10.3369 10.3369 1.60809e-07 23.088 0H80.912ZM53.4855 55.1533V67.4436L60.4285 74.4159L67.3711 81.3587L79.5137 81.536L81.5523 79.4974V67.6504C81.5523 55.0057 81.4932 54.5032 80.1046 53.7351C79.7204 53.5579 75.1411 53.4398 67.3711 53.4398H55.199L53.4855 55.1533ZM37.3244 53.5568C35.3154 53.4681 33.9565 53.5864 32.8337 53.8818C30.4702 54.5613 28.4317 55.7431 26.5998 57.5748C21.1342 63.0404 21.1048 71.4308 26.5113 77.1032C32.4201 83.3074 42.4355 82.7758 47.635 75.9807C49.319 73.7354 50.2351 71.3423 50.4418 68.5947C50.9144 62.6565 47.8123 57.2795 42.4355 54.7385C40.456 53.7932 39.8946 53.6749 37.3244 53.5568ZM36.9405 23.7473C36.3792 23.6588 35.6406 23.7473 35.3155 23.9245C34.3702 24.4563 23.3503 35.4763 22.8778 36.3626C22.5527 36.9831 22.464 38.4604 22.464 42.6554C22.464 48.4756 22.6708 49.5096 23.9117 50.1891C24.2957 50.3664 28.875 50.4845 36.645 50.4845H48.8172L50.5306 48.7709V36.4806L44.2378 30.1878C38.9199 24.8404 37.8268 23.8655 36.9405 23.7473ZM77.1497 26.465C73.4271 22.9198 68.7295 21.679 63.8253 22.9495C59.0391 24.2198 55.1985 28.0605 53.9281 32.9056C52.2146 39.494 55.4055 46.2596 61.6688 49.2434C63.914 50.3071 64.0619 50.3366 67.3707 50.3366C71.418 50.3071 73.1318 49.7456 76.0268 47.5889C82.822 42.3894 83.3539 32.3738 77.1497 26.465Z" fill="#D9DBD7"/>
<path d="M63.8258 22.9498C59.0395 24.22 55.199 28.0608 53.9285 32.9059C52.215 39.4943 55.4058 46.2599 61.6691 49.2437C63.9144 50.3074 64.0621 50.3369 67.371 50.3369C71.4184 50.3074 73.1321 49.746 76.0273 47.5893C82.8225 42.3897 83.3543 32.3743 77.1501 26.4654C73.4275 22.9203 68.73 21.6793 63.8258 22.9498ZM35.3159 23.9249C34.3705 24.4567 23.3506 35.4766 22.8781 36.3629C22.553 36.9833 22.4644 38.4606 22.4644 42.6557C22.4644 48.476 22.6711 49.5099 23.912 50.1895C24.296 50.3667 28.8753 50.4848 36.6454 50.4848H48.8176L50.5311 48.7713V36.481L44.2382 30.1882C38.9203 24.8407 37.8272 23.8658 36.941 23.7477C36.3796 23.6591 35.641 23.7477 35.3159 23.9249ZM32.834 53.8821C30.4705 54.5616 28.4321 55.7435 26.6002 57.5751C21.1346 63.0407 21.1051 71.4313 26.5116 77.1036C32.4205 83.3078 42.4359 82.7762 47.6355 75.981C49.3195 73.7357 50.2355 71.3426 50.4422 68.595C50.9148 62.6568 47.8127 57.2798 42.4359 54.7388C40.4564 53.7935 39.895 53.6753 37.3247 53.5572C35.3156 53.4686 33.9568 53.5867 32.834 53.8821ZM53.4859 55.1536V67.4439L60.4287 74.4163L67.3714 81.3591L79.514 81.5363L81.5526 79.4977V67.6506C81.5526 55.0059 81.4935 54.5036 80.1049 53.7354C79.7208 53.5582 75.1414 53.4401 67.3714 53.4401H55.1994L53.4859 55.1536Z" fill="#D9DBD7"/>
<path d="M78.068 67.6508C78.068 61.7786 78.0506 58.7322 77.923 57.0501C77.4999 57.0339 77.0006 57.0185 76.4247 57.0048C74.3001 56.954 71.2437 56.9247 67.3715 56.9247H56.9705V66.0048L62.8928 71.9523L68.8355 77.8952L78.068 78.03V67.6508ZM32.834 53.8821C33.9568 53.5867 35.3156 53.4686 37.3247 53.5572C39.895 53.6753 40.4564 53.7935 42.4359 54.7388C47.8127 57.2798 50.9148 62.6568 50.4422 68.595C50.2355 71.3426 49.3195 73.7357 47.6355 75.981L47.5129 76.1391C42.2798 82.7841 32.3744 83.2593 26.5116 77.1036C21.1473 71.4755 21.1345 63.1716 26.4732 57.7037L26.6002 57.5751C28.4321 55.7435 30.4705 54.5616 32.834 53.8821ZM37.1658 57.038C35.3823 56.9597 34.4118 57.0751 33.7556 57.243C32.0326 57.7448 30.5625 58.5813 29.1968 59.9082L29.0641 60.0391C25.0357 64.0675 24.9011 70.1659 28.8432 74.4947L29.034 74.6994L29.0348 74.7005L29.1395 74.8088C33.585 79.3486 40.9925 78.914 44.8591 73.8749C46.1498 72.1488 46.8128 70.3909 46.9676 68.3334L46.9681 68.3261L46.9687 68.3185C47.3269 63.8174 45.0084 59.8085 40.9472 57.8893L40.9406 57.8864L40.9343 57.8832C39.9819 57.4284 39.6364 57.306 39.3235 57.2343C38.9602 57.1511 38.4727 57.0981 37.1658 57.038ZM35.3159 23.9249C35.641 23.7477 36.3796 23.6591 36.941 23.7477C37.8272 23.8658 38.9203 24.8407 44.2382 30.1882L50.5311 36.481V48.7713L48.8176 50.4848H36.6454C28.9967 50.4848 24.4398 50.3703 23.9331 50.1977L23.912 50.1895C22.7487 49.5524 22.4942 48.6038 22.467 43.692L22.4644 42.6557C22.4644 38.5918 22.5476 37.0784 22.8484 36.4237L22.8781 36.3629C23.3506 35.4766 34.3705 24.4567 35.3159 23.9249ZM63.8258 22.9498C68.73 21.6793 73.4275 22.9203 77.1501 26.4654C83.3543 32.3743 82.8225 42.3897 76.0273 47.5893L75.7593 47.7869C73.0228 49.7807 71.2919 50.3083 67.371 50.3369C64.2689 50.3369 63.9452 50.311 62.0667 49.4313L61.6691 49.2437C55.5036 46.3065 52.3155 39.7048 53.8519 33.2148L53.9285 32.9059C55.1791 28.1365 58.9201 24.3403 63.6021 23.0112L63.8258 22.9498ZM74.7471 28.9887C71.8825 26.2606 68.4221 25.3617 64.7094 26.3203C61.1438 27.2707 58.2515 30.1581 57.2992 33.7896C56.0192 38.7241 58.3816 43.8178 63.1676 46.0978C64.358 46.6616 64.5562 46.7245 64.778 46.7671C65.1082 46.8305 65.5864 46.852 67.3487 46.8522C69.2433 46.8382 70.2721 46.6965 71.072 46.4412C71.8413 46.1957 72.634 45.7702 73.9301 44.806C78.9609 40.9374 79.3923 33.5359 74.8552 29.0931L74.7471 28.9887ZM81.5526 79.4977L79.514 81.5363L67.3714 81.3591L60.4287 74.4163L53.4859 67.4439V55.1536L55.1994 53.4401H67.3714C75.1414 53.4401 79.7208 53.5582 80.1049 53.7354C81.4935 54.5036 81.5526 55.0059 81.5526 67.6506V79.4977ZM25.9489 42.6557C25.9489 44.7614 25.9809 46.0543 26.0447 46.8726C26.4781 46.8894 26.9938 46.9057 27.5922 46.92C29.7168 46.9707 32.7732 47.0003 36.6454 47.0003H47.0464V37.9241L41.7675 32.6452C39.084 29.9468 37.5671 28.4549 36.62 27.6179C36.5745 27.5776 36.5309 27.5402 36.4899 27.5048C36.1938 27.7787 35.843 28.1092 35.4479 28.4869C34.2993 29.5849 32.8381 31.0203 31.3835 32.4748C29.9289 33.9294 28.4975 35.387 27.4072 36.5279C26.8597 37.1007 26.4141 37.577 26.0997 37.9265C26.0864 37.9412 26.0737 37.9557 26.0612 37.9697C26.05 38.0807 26.0378 38.2202 26.0266 38.3937C25.972 39.2389 25.9489 40.553 25.9489 42.6557Z" fill="#F8F8F7"/>
</svg>
