<svg width="40" height="40" viewBox="0 0 40 40" fill="none" xmlns="http://www.w3.org/2000/svg">
<path d="M31.12 0C36.0243 6.18495e-08 40 3.97571 40 8.88V31.12C40 36.0243 36.0243 40 31.12 40H8.88C3.97571 40 6.18656e-08 36.0243 0 31.12V8.88C6.18656e-08 3.97571 3.97571 6.18495e-08 8.88 0H31.12ZM20.5713 21.2128V25.9398L23.2417 28.6215L25.912 31.2918L30.5822 31.36L31.3662 30.5759V26.0194C31.3662 21.156 31.3435 20.9628 30.8095 20.6673C30.6617 20.5992 28.9004 20.5537 25.912 20.5537H21.2304L20.5713 21.2128ZM14.3555 20.5987C13.5828 20.5647 13.0602 20.6102 12.6284 20.7237C11.7193 20.9851 10.9353 21.4397 10.2307 22.1441C8.12855 24.2463 8.11722 27.4734 10.1966 29.6551C12.4693 32.0413 16.3213 31.8369 18.3212 29.2234C18.9688 28.3598 19.3212 27.4394 19.4007 26.3826C19.5825 24.0987 18.3893 22.0306 16.3213 21.0533C15.56 20.6897 15.3441 20.6442 14.3555 20.5987ZM14.2079 9.13359C13.992 9.09952 13.7079 9.13357 13.5829 9.20172C13.2193 9.40628 8.9809 13.6447 8.79914 13.9856C8.67411 14.2243 8.64 14.7925 8.64 16.4059C8.64 18.6445 8.71952 19.0422 9.1968 19.3035C9.34448 19.3717 11.1058 19.4171 14.0942 19.4171H18.7759L19.4348 18.758V14.031L17.0145 11.6107C14.9692 9.554 14.5488 9.17903 14.2079 9.13359ZM29.673 10.1788C28.2412 8.81532 26.4344 8.33808 24.5482 8.82672C22.7073 9.31529 21.2302 10.7925 20.7416 12.656C20.0825 15.19 21.3098 17.7922 23.7187 18.9398C24.5823 19.3489 24.6392 19.3602 25.9118 19.3602C27.4685 19.3489 28.1276 19.1329 29.2411 18.3034C31.8546 16.3036 32.0592 12.4515 29.673 10.1788Z" fill="#6EB436"/>
<path d="M24.5484 8.82684C22.7075 9.3154 21.2304 10.7926 20.7417 12.6561C20.0827 15.1901 21.3099 17.7923 23.7189 18.9399C24.5825 19.349 24.6393 19.3604 25.9119 19.3604C27.4686 19.349 28.1277 19.1331 29.2413 18.3036C31.8548 16.3037 32.0593 12.4516 29.6731 10.179C28.2413 8.81548 26.4346 8.3382 24.5484 8.82684ZM13.583 9.20188C13.2194 9.40644 8.98102 13.6448 8.79926 13.9857C8.67422 14.2244 8.64014 14.7925 8.64014 16.406C8.64014 18.6446 8.71966 19.0423 9.19694 19.3036C9.34462 19.3718 11.1059 19.4172 14.0944 19.4172H18.776L19.435 18.7582V14.0312L17.0147 11.6108C14.9693 9.55412 14.5489 9.17916 14.2081 9.13372C13.9921 9.09964 13.7081 9.13372 13.583 9.20188ZM12.6285 20.7239C11.7194 20.9852 10.9354 21.4398 10.2309 22.1443C8.1287 24.2464 8.11734 27.4736 10.1968 29.6552C12.4694 32.0415 16.3215 31.837 18.3213 29.2235C18.969 28.3599 19.3213 27.4395 19.4009 26.3827C19.5826 24.0988 18.3895 22.0307 16.3215 21.0534C15.5601 20.6898 15.3442 20.6444 14.3557 20.5989C13.5829 20.5648 13.0603 20.6103 12.6285 20.7239ZM20.5715 21.2129V25.94L23.2418 28.6216L25.9121 31.292L30.5823 31.3601L31.3664 30.576V26.0195C31.3664 21.1561 31.3437 20.9629 30.8096 20.6675C30.6618 20.5993 28.9005 20.5539 25.9121 20.5539H21.2305L20.5715 21.2129Z" fill="#A2E771"/>
<path d="M30.0262 26.0195C30.0262 23.761 30.0195 22.5893 29.9704 21.9423C29.8077 21.9361 29.6156 21.9302 29.3941 21.9249C28.5769 21.9054 27.4014 21.8941 25.9121 21.8941H21.9117V25.3865L24.1895 27.6739L26.4752 29.9597L30.0262 30.0116V26.0195ZM12.6285 20.7239C13.0603 20.6103 13.5829 20.5648 14.3557 20.5989C15.3442 20.6444 15.5601 20.6898 16.3215 21.0534C18.3895 22.0307 19.5826 24.0988 19.4009 26.3827C19.3213 27.4395 18.969 28.3599 18.3213 29.2235L18.2742 29.2843C16.2615 31.84 12.4517 32.0228 10.1968 29.6552C8.13357 27.4906 8.12864 24.2968 10.182 22.1937L10.2309 22.1443C10.9354 21.4398 11.7194 20.9852 12.6285 20.7239ZM14.2945 21.9377C13.6086 21.9076 13.2353 21.952 12.9829 22.0165C12.3202 22.2096 11.7548 22.5313 11.2295 23.0416L11.1785 23.092C9.62912 24.6413 9.57734 26.9869 11.0935 28.6518L11.1669 28.7305L11.1672 28.7309L11.2075 28.7726C12.9173 30.5187 15.7663 30.3515 17.2535 28.4134C17.7499 27.7495 18.0049 27.0734 18.0645 26.2821L18.0647 26.2793L18.0649 26.2764C18.2026 24.5451 17.3109 23.0033 15.7489 22.2651L15.7464 22.264L15.744 22.2628C15.3777 22.0878 15.2448 22.0408 15.1244 22.0132C14.9847 21.9812 14.7972 21.9608 14.2945 21.9377ZM13.583 9.20188C13.7081 9.13372 13.9921 9.09964 14.2081 9.13372C14.5489 9.17916 14.9693 9.55412 17.0147 11.6108L19.435 14.0312V18.7582L18.776 19.4172H14.0944C11.1526 19.4172 9.39992 19.3732 9.20503 19.3068L9.19694 19.3036C8.74949 19.0586 8.65163 18.6938 8.64114 16.8046L8.64014 16.406C8.64014 14.843 8.67216 14.2609 8.78783 14.0091L8.79926 13.9857C8.98102 13.6448 13.2194 9.40644 13.583 9.20188ZM24.5484 8.82684C26.4346 8.3382 28.2413 8.81548 29.6731 10.179C32.0593 12.4516 31.8548 16.3037 29.2413 18.3036L29.1382 18.3796C28.0857 19.1464 27.42 19.3494 25.9119 19.3604C24.7188 19.3604 24.5943 19.3504 23.8718 19.012L23.7189 18.9399C21.3475 17.8102 20.1214 15.2711 20.7123 12.7749L20.7417 12.6561C21.2227 10.8217 22.6616 9.36164 24.4624 8.85045L24.5484 8.82684ZM28.7489 11.1495C27.6471 10.1002 26.3162 9.75449 24.8882 10.1232C23.5169 10.4887 22.4044 11.5993 22.0382 12.996C21.5458 14.8939 22.4545 16.853 24.2952 17.7299C24.7531 17.9468 24.8293 17.971 24.9146 17.9873C25.0416 18.0117 25.2255 18.02 25.9033 18.0201C26.632 18.0147 27.0277 17.9602 27.3354 17.862C27.6313 17.7676 27.9362 17.6039 28.4347 17.2331C30.3696 15.7451 30.5355 12.8984 28.7904 11.1897L28.7489 11.1495ZM31.3664 30.576L30.5823 31.3601L25.9121 31.292L23.2418 28.6216L20.5715 25.94V21.2129L21.2305 20.5539H25.9121C28.9005 20.5539 30.6618 20.5993 30.8096 20.6675C31.3437 20.9629 31.3664 21.1561 31.3664 26.0195V30.576ZM9.98034 16.406C9.98034 17.2159 9.99264 17.7132 10.0172 18.0279C10.1839 18.0344 10.3822 18.0406 10.6124 18.0461C11.4295 18.0657 12.6051 18.0771 14.0944 18.0771H18.0948V14.5862L16.0644 12.5559C15.0323 11.518 14.4489 10.9442 14.0846 10.6223C14.0671 10.6068 14.0503 10.5924 14.0346 10.5788C13.9207 10.6841 13.7858 10.8112 13.6338 10.9565C13.192 11.3788 12.63 11.9309 12.0706 12.4903C11.5111 13.0498 10.9606 13.6104 10.5412 14.0492C10.3307 14.2695 10.1593 14.4527 10.0383 14.5871C10.0332 14.5928 10.0283 14.5983 10.0235 14.6037C10.0192 14.6464 10.0146 14.7001 10.0102 14.7668C9.98923 15.0919 9.98034 15.5973 9.98034 16.406Z" fill="white"/>
</svg>
